<?xml version="1.0" standalone="no"?>
<!DOCTYPE svg PUBLIC "-//W3C//DTD SVG 20010904//EN"
 "http://www.w3.org/TR/2001/REC-SVG-20010904/DTD/svg10.dtd">
<svg version="1.0" xmlns="http://www.w3.org/2000/svg"
 width="300.000000pt" height="240.000000pt" viewBox="0 0 300.000000 240.000000"
 preserveAspectRatio="xMidYMid meet">
<metadata>
Created by potrace 1.10, written by Peter Selinger 2001-2011
</metadata>
<g transform="translate(0.000000,240.000000) scale(0.100000,-0.100000)"
fill="#000000" stroke="none">
<path d="M684 2259 c-106 -24 -193 -110 -194 -192 0 -52 13 -73 63 -98 35 -18
96 -62 177 -126 8 -6 60 -46 115 -89 55 -42 111 -87 125 -100 14 -12 50 -44
80 -70 30 -26 58 -56 62 -66 4 -10 14 -18 22 -18 16 0 167 -124 201 -166 12
-13 26 -24 32 -24 17 0 103 -100 103 -120 0 -10 7 -23 16 -30 11 -10 14 -23 9
-50 -5 -32 -2 -42 20 -66 15 -16 34 -41 43 -56 9 -16 21 -28 28 -28 6 0 19 -9
29 -20 10 -11 26 -20 37 -20 10 0 18 -6 18 -13 0 -7 6 -19 13 -25 13 -14 15
-32 19 -267 2 -91 7 -163 13 -167 6 -4 2 -8 -9 -8 -10 0 -49 -7 -87 -17 -81
-19 -100 -43 -36 -44 84 -1 85 -16 2 -23 -227 -18 -232 -20 -75 -27 190 -8
250 -16 243 -35 -3 -7 -20 -16 -39 -20 -35 -6 -56 -23 -32 -25 7 -1 -5 -5 -27
-10 -54 -13 -288 -32 -402 -33 -51 -1 -93 -5 -93 -10 0 -9 403 0 474 10 27 4
36 3 32 -5 -5 -7 2 -11 18 -11 41 0 30 -20 -11 -21 -21 -1 -49 -5 -63 -9 -18
-6 -7 -9 45 -10 59 -2 64 -4 30 -9 -22 -3 50 -5 160 -4 110 0 214 5 230 10
l30 10 -35 8 c-19 4 -39 11 -45 15 -5 4 -31 11 -57 14 -66 10 -60 26 10 27 43
2 30 5 -56 13 -63 6 -110 14 -106 19 4 4 45 7 91 7 45 0 83 4 83 9 0 5 10 12
23 14 16 3 13 5 -10 6 -18 0 -33 6 -33 11 0 6 38 10 93 10 52 0 97 3 101 7 4
5 -27 13 -71 19 -60 9 -69 12 -38 13 l40 3 -35 13 -35 13 32 1 c88 2 76 31
-13 31 -41 0 -63 4 -59 10 3 5 22 10 41 10 19 0 34 5 34 10 0 6 -13 10 -29 10
-42 0 -56 22 -44 68 11 39 9 175 -3 205 -4 12 1 26 15 41 23 24 24 73 2 100
-15 18 -8 22 63 31 77 9 111 41 102 97 -3 21 -9 56 -12 78 -7 44 -26 65 -49
56 -12 -4 -13 -11 -7 -23 5 -10 7 -23 5 -30 -2 -6 1 -14 6 -18 15 -8 14 -37
-1 -58 -12 -16 -17 -16 -68 4 -30 11 -59 25 -64 30 -6 5 -27 9 -48 9 -45 0
-51 21 -15 45 22 14 47 54 47 75 0 17 -32 40 -55 40 -14 0 -29 9 -35 20 -6 11
-18 20 -28 20 -19 -1 -72 -44 -72 -59 0 -5 -11 -22 -25 -37 -25 -27 -33 -68
-15 -79 21 -13 8 -20 -33 -19 -23 1 -46 3 -52 4 -5 2 -14 4 -20 5 -29 6 -48
21 -75 62 -17 24 -30 46 -30 49 0 9 24 3 39 -10 14 -13 16 -11 18 19 3 38 -19
64 -40 46 -11 -8 -19 -5 -37 14 -13 14 -28 25 -33 25 -5 0 -102 80 -216 178
-362 313 -667 552 -705 552 -9 0 -23 15 -32 33 -21 43 -6 101 36 144 100 102
294 110 489 22 143 -65 256 -153 450 -351 245 -250 325 -300 529 -335 81 -14
113 -15 197 -5 179 20 285 67 285 126 0 66 -153 164 -272 173 -78 7 -122 -10
-163 -61 -17 -21 -43 -51 -58 -68 -15 -17 -27 -38 -25 -47 1 -9 0 -21 -4 -26
-4 -6 2 -11 13 -12 15 -1 22 8 30 43 14 56 59 118 101 140 75 39 240 -4 327
-85 97 -91 -51 -167 -324 -165 -112 1 -141 5 -210 27 -142 47 -192 84 -410
302 -125 126 -229 221 -277 253 -205 140 -392 195 -544 161z m1187 -1086 c34
-20 36 -38 9 -73 -11 -14 -20 -32 -20 -41 0 -19 36 -59 55 -59 8 0 46 -12 86
-27 l72 -26 -52 -23 c-54 -24 -55 -26 -51 -92 1 -23 -4 -49 -10 -57 -8 -10
-12 -43 -9 -98 1 -45 2 -109 0 -142 -2 -59 17 -126 39 -140 37 -23 -35 -97
-104 -108 -45 -7 -89 -34 -80 -48 3 -6 27 -20 53 -32 l46 -22 -78 -3 c-111 -4
-134 18 -77 73 41 39 36 65 -17 90 -65 31 -70 41 -36 59 47 24 54 54 48 216
-9 244 -13 267 -49 303 -18 18 -47 44 -66 59 l-35 27 61 0 c75 1 113 25 112
70 -1 28 48 110 65 111 5 0 22 -8 38 -17z"/>
<path d="M2190 411 c59 -16 69 -16 118 -1 29 8 45 17 36 18 -9 2 -35 -1 -58
-8 -30 -8 -49 -8 -69 -1 -16 6 -43 11 -60 10 -25 -1 -17 -5 33 -18z"/>
<path d="M1205 358 c-55 -5 -149 -7 -210 -5 -119 5 -135 3 -135 -18 0 -22 91
-35 253 -35 84 -1 193 -6 243 -14 89 -12 114 -12 114 3 0 9 -121 19 -352 29
-86 4 -160 11 -165 16 -5 5 10 6 34 2 47 -7 321 11 368 24 29 8 29 8 -10 8
-22 -1 -85 -5 -140 -10z"/>
<path d="M2110 246 c43 -12 44 -13 22 -25 -15 -8 -22 -20 -20 -33 4 -28 28
-36 28 -9 0 29 57 51 134 52 l61 2 -50 8 c-27 5 -88 11 -135 13 -81 4 -83 4
-40 -8z"/>
<path d="M1408 131 c62 -18 64 -18 120 1 l57 19 -45 -7 c-55 -8 -80 -8 -145 0
l-50 6 63 -19z"/>
</g>
</svg>
